<svg width="52" height="52" viewBox="0 0 52 52" fill="none" xmlns="http://www.w3.org/2000/svg">
<path fill-rule="evenodd" clip-rule="evenodd" d="M15.9829 7.75731C9.916 7.75731 4.97899 12.6999 4.97899 18.8307C4.97899 26.3153 8.43365 32.3162 12.7918 36.7815C17.1726 41.2701 22.3508 44.08 25.4408 45.1349L25.4591 45.1413C25.5894 45.1873 25.8834 45.2427 26.2704 45.2427C26.6574 45.2427 26.9514 45.1873 27.0817 45.1413L27.1 45.1349C30.19 44.08 35.3682 41.2701 39.749 36.7815C44.1071 32.3162 47.5618 26.3153 47.5618 18.8307C47.5618 12.6999 42.6248 7.75731 36.5579 7.75731C32.9848 7.75731 29.7803 9.49346 27.7786 12.1888C27.4242 12.6661 26.8648 12.9474 26.2704 12.9474C25.6759 12.9474 25.1166 12.6661 24.7622 12.1888C22.7593 9.49192 19.5773 7.75731 15.9829 7.75731ZM1.22168 18.8307C1.22168 10.6424 7.82336 4 15.9829 4C19.9955 4 23.6227 5.611 26.2712 8.21664C28.9255 5.61016 32.5657 4 36.5579 4C44.7174 4 51.3191 10.6424 51.3191 18.8307C51.3191 27.5652 47.2667 34.4584 42.4379 39.4059C37.6354 44.3264 31.9519 47.4469 28.3223 48.6879C27.6672 48.9173 26.9227 49 26.2704 49C25.6181 49 24.8737 48.9173 24.2186 48.6879C20.589 47.447 14.9054 44.3265 10.1029 39.4059C5.27411 34.4584 1.22168 27.5652 1.22168 18.8307Z" fill="white"/>
</svg>
