<svg width="230" height="230" viewBox="0 0 230 230" fill="none" xmlns="http://www.w3.org/2000/svg">
<path d="M79.8679 54.0544C59.8021 65.6394 52.9098 91.3617 64.4948 111.428L74.6098 128.947C76.7448 132.645 78.4236 139.193 78.3644 143.43L78.0779 159.034C77.9037 168.672 85.4592 174.899 94.88 173.016C126.048 166.661 154.237 150.386 175.325 126.571C181.26 119.911 179.468 109.387 171.617 105.029L157.961 97.4753C154.322 95.373 149.491 90.6451 147.356 86.9472L137.241 69.4275C125.691 49.4223 99.8731 42.5044 79.8679 54.0544Z" stroke="white" stroke-width="5" stroke-miterlimit="10" stroke-linecap="round"/>
<path d="M155.998 144.196C161.773 154.198 156.895 164.37 146.893 170.145C141.922 173.015 136.124 173.614 130.961 172.23C125.797 170.847 122.495 170.167 119.625 165.196" stroke="white" stroke-width="5" stroke-miterlimit="10"/>
</svg>
