<svg width="52" height="52" viewBox="0 0 52 52" fill="none" xmlns="http://www.w3.org/2000/svg">
<g clip-path="url(#clip0_360_1977)">
<path d="M47.0681 33.7915C46.2992 33.2664 45.4366 32.8164 44.4802 32.4601L29.1221 26.7219C28.4283 26.4594 27.6595 26.6281 27.1344 27.1532C26.6093 27.6783 26.4406 28.4471 26.7031 29.1409L32.4413 44.499C32.7976 45.4367 33.2476 46.2993 33.7727 47.0869C35.2729 49.2621 38.0482 51.6812 41.4049 51.9999C41.6487 52.0187 41.8924 52.0375 42.1362 52.0375C44.499 52.0375 46.7493 50.9873 48.8308 48.9058C51.1373 46.5993 52.1687 44.1052 51.9436 41.4799C51.6436 38.1233 49.2058 35.3479 47.0306 33.8478L47.0681 33.7915ZM46.2242 46.2055C44.7428 47.6869 43.2614 48.3808 41.7799 48.2307C39.7172 48.0432 37.8607 46.3368 36.9043 44.9303C36.548 44.4053 36.248 43.8052 35.9855 43.1676L31.6912 31.6725L43.1863 35.9668C43.8427 36.2106 44.4427 36.5293 44.9678 36.8856C46.3742 37.8607 48.0807 39.7172 48.2682 41.78C48.3995 43.2426 47.7244 44.7428 46.243 46.2243L46.2242 46.2055Z" fill="white"/>
<path d="M25.278 22.8779L19.5398 7.51982C19.1835 6.5822 18.7334 5.7196 18.2084 4.93201C16.7082 2.7755 13.9141 0.337704 10.5762 0.0376681C7.95087 -0.206111 5.43807 0.844015 3.13155 3.13179C0.843771 5.43832 -0.206355 7.95112 0.0374239 10.5764C0.33746 13.9143 2.77525 16.7084 4.95051 18.2086C5.71936 18.7337 6.58196 19.1837 7.53833 19.54L22.8964 25.2782C23.1027 25.3532 23.3277 25.3907 23.5528 25.3907C24.0403 25.3907 24.5279 25.2032 24.8842 24.8469C25.4092 24.3218 25.578 23.553 25.3155 22.8592L25.278 22.8779ZM8.83223 16.0333C8.1759 15.7896 7.57583 15.4708 7.05077 15.1145C5.64435 14.1581 3.93789 12.2829 3.75037 10.2389C3.6191 8.77622 4.29419 7.27604 5.77561 5.79461C7.12578 4.44445 8.49469 3.75061 9.84485 3.75061C9.95737 3.75061 10.0886 3.75061 10.2011 3.75061C12.2639 3.93814 14.1204 5.64459 15.0767 7.05101C15.433 7.57607 15.7331 8.17615 15.9956 8.81372L20.2899 20.3089L8.79473 16.0146L8.83223 16.0333Z" fill="white"/>
<path d="M48.8686 3.13167C46.562 0.843893 44.0492 -0.206233 41.4239 0.037546C38.086 0.337582 35.2919 2.77538 33.7918 4.95064C33.2479 5.71948 32.8166 6.60083 32.4603 7.53845L26.7222 22.8965C26.4596 23.5904 26.6284 24.3592 27.1535 24.8843C27.5097 25.2406 27.9973 25.4281 28.4849 25.4281C28.7099 25.4281 28.9349 25.3906 29.1412 25.3156L44.4993 19.5586C45.4369 19.2024 46.2995 18.7523 47.0871 18.2272C49.2624 16.7271 51.6814 13.9517 52.0002 10.5951C52.244 7.96975 51.1938 5.45695 48.8873 3.15042L48.8686 3.13167ZM44.9306 15.1144C44.4055 15.4707 43.8055 15.7894 43.1679 16.0332L31.6727 20.3275L35.967 8.83235C36.2108 8.17602 36.5108 7.57595 36.8859 7.06964C37.861 5.66322 39.7175 3.95677 41.7615 3.76924C41.874 3.76924 42.0052 3.76924 42.1178 3.76924C43.4679 3.76924 44.8368 4.46308 46.187 5.81324C47.6684 7.29467 48.3435 8.7761 48.2122 10.2575C48.0247 12.3203 46.3183 14.1767 44.9118 15.1331L44.9306 15.1144Z" fill="white"/>
<path d="M22.8777 26.722L7.51956 32.479C6.58195 32.8352 5.71934 33.2853 4.93175 33.8104C2.77524 35.2918 0.337444 38.0859 0.0374082 41.4238C-0.206371 44.0491 0.843755 46.5619 3.15028 48.8497C5.23178 50.9312 7.48205 51.9813 9.84484 51.9813C10.0886 51.9813 10.3324 51.9813 10.5762 51.9438C13.9141 51.6438 16.7082 49.206 18.2083 47.0307C18.7522 46.2619 19.1835 45.3805 19.5398 44.4429L25.2779 29.0848C25.5405 28.391 25.3717 27.6221 24.8466 27.0971C24.3216 26.572 23.5527 26.4032 22.8589 26.6658L22.8777 26.722ZM16.0331 43.1677C15.7893 43.8241 15.4893 44.4241 15.1142 44.9305C14.1391 46.3369 12.2826 48.0433 10.2386 48.2308C8.75721 48.3809 7.27578 47.687 5.79435 46.2056C4.31292 44.7242 3.63784 43.2428 3.76911 41.7613C3.95663 39.6986 5.66308 37.8421 7.0695 36.8857C7.59457 36.5294 8.19464 36.2107 8.83222 35.9669L20.3273 31.6726L16.0331 43.1677Z" fill="white"/>
</g>
<defs>
<clipPath id="clip0_360_1977">
<rect width="52" height="52" fill="white"/>
</clipPath>
</defs>
</svg>
