<svg width="30" height="30" viewBox="0 0 30 30" fill="none" xmlns="http://www.w3.org/2000/svg">
<path d="M13.6875 17.0938L20.3125 10.4688L18.9688 9.15625L13.6875 14.4688L11.0312 11.8125L9.6875 13.125L13.6875 17.0938ZM1.25 26.25V24.375H28.75V26.25H1.25ZM4.375 22.5C3.875 22.5 3.4375 22.3125 3.0625 21.9375C2.6875 21.5625 2.5 21.125 2.5 20.625V5.625C2.5 5.125 2.6875 4.6875 3.0625 4.3125C3.4375 3.9375 3.875 3.75 4.375 3.75H25.625C26.125 3.75 26.5625 3.9375 26.9375 4.3125C27.3125 4.6875 27.5 5.125 27.5 5.625V20.625C27.5 21.125 27.3125 21.5625 26.9375 21.9375C26.5625 22.3125 26.125 22.5 25.625 22.5H4.375ZM4.375 20.625H25.625V5.625H4.375V20.625ZM4.375 20.625V5.625V20.625Z" fill="black"/>
<rect x="7" y="8" width="16" height="11" fill="#F3F3F3"/>
</svg>
