<svg width="128" height="23" viewBox="0 0 128 23" fill="none" xmlns="http://www.w3.org/2000/svg">
<path d="M22.8016 8.59893C22.6095 8.02349 22.124 7.6107 21.5355 7.52079L15.5612 6.62575L12.872 0.91711C12.6047 0.351477 12.0578 0 11.444 0C10.8301 0 10.2833 0.351477 10.016 0.91711L7.36603 6.60532L1.35251 7.52079C0.763985 7.6107 0.279274 8.02349 0.0863702 8.59893C-0.11062 9.1899 0.0348747 9.83073 0.466456 10.2713L4.81578 14.7228L3.78832 20.9971C3.68615 21.624 3.93954 22.2379 4.45123 22.5983C4.94329 22.9474 5.57595 22.9817 6.10235 22.6915L11.4064 19.7293L16.7856 22.6915C17.3137 22.9817 17.9447 22.9457 18.4367 22.5983C18.9484 22.2379 19.2026 21.624 19.0996 20.9971L18.0706 14.7146L22.4215 10.2713C22.8531 9.83073 22.9986 9.1899 22.8016 8.59893Z" fill="#FFA114"/>
<path d="M75.1141 8.59893C74.922 8.02349 74.4365 7.6107 73.848 7.52079L67.8737 6.62575L65.1845 0.91711C64.9172 0.351477 64.3703 0 63.7565 0C63.1426 0 62.5958 0.351477 62.3285 0.91711L59.6785 6.60532L53.665 7.52079C53.0765 7.6107 52.5918 8.02349 52.3989 8.59893C52.2019 9.1899 52.3474 9.83073 52.779 10.2713L57.1283 14.7228L56.1008 20.9971C55.9986 21.624 56.252 22.2379 56.7637 22.5983C57.2558 22.9474 57.8885 22.9817 58.4149 22.6915L63.7189 19.7293L69.0981 22.6915C69.6262 22.9817 70.2572 22.9457 70.7492 22.5983C71.2609 22.2379 71.5151 21.624 71.4121 20.9971L70.3831 14.7146L74.734 10.2713C75.1656 9.83073 75.3111 9.1899 75.1141 8.59893Z" fill="#FFA114"/>
<path d="M48.9578 8.59893C48.7658 8.02349 48.2802 7.6107 47.6917 7.52079L41.7174 6.62575L39.0282 0.91711C38.7609 0.351477 38.2141 0 37.6002 0C36.9864 0 36.4395 0.351477 36.1723 0.91711L33.5223 6.60532L27.5088 7.52079C26.9202 7.6107 26.4355 8.02349 26.2426 8.59893C26.0456 9.1899 26.1911 9.83073 26.6227 10.2713L30.972 14.7228L29.9446 20.9971C29.8424 21.624 30.0958 22.2379 30.6075 22.5983C31.0995 22.9474 31.7322 22.9817 32.2586 22.6915L37.5626 19.7293L42.9419 22.6915C43.4699 22.9817 44.1009 22.9457 44.593 22.5983C45.1047 22.2379 45.3589 21.624 45.2559 20.9971L44.2268 14.7146L48.5778 10.2713C49.0093 9.83073 49.1548 9.1899 48.9578 8.59893Z" fill="#FFA114"/>
<path d="M101.27 8.59893C101.078 8.02349 100.593 7.6107 100.004 7.52079L94.0299 6.62575L91.3407 0.91711C91.0734 0.351477 90.5266 0 89.9127 0C89.2989 0 88.752 0.351477 88.4848 0.91711L85.8348 6.60532L79.8213 7.52079C79.2327 7.6107 78.748 8.02349 78.5551 8.59893C78.3581 9.1899 78.5036 9.83073 78.9352 10.2713L83.2845 14.7228L82.2571 20.9971C82.1549 21.624 82.4083 22.2379 82.92 22.5983C83.412 22.9474 84.0447 22.9817 84.5711 22.6915L89.8751 19.7293L95.2544 22.6915C95.7824 22.9817 96.4134 22.9457 96.9055 22.5983C97.4172 22.2379 97.6714 21.624 97.5684 20.9971L96.5393 14.7146L100.89 10.2713C101.322 9.83073 101.467 9.1899 101.27 8.59893Z" fill="#FFA114"/>
<path d="M127.427 8.59893C127.235 8.02349 126.749 7.6107 126.16 7.52079L120.186 6.62575L117.497 0.91711C117.23 0.351477 116.683 0 116.069 0C115.455 0 114.908 0.351477 114.641 0.91711L111.991 6.60532L105.978 7.52079C105.389 7.6107 104.904 8.02349 104.711 8.59893C104.514 9.1899 104.66 9.83073 105.091 10.2713L109.441 14.7228L108.413 20.9971C108.311 21.624 108.565 22.2379 109.076 22.5983C109.568 22.9474 110.201 22.9817 110.727 22.6915L116.031 19.7293L121.411 22.6915C121.939 22.9817 122.57 22.9457 123.062 22.5983C123.573 22.2379 123.828 21.624 123.725 20.9971L122.696 14.7146L127.047 10.2713C127.478 9.83073 127.624 9.1899 127.427 8.59893Z" fill="#FFA114"/>
</svg>
