<svg width="53" height="52" viewBox="0 0 53 52" fill="none" xmlns="http://www.w3.org/2000/svg">
<g clip-path="url(#clip0_360_1984)">
<path d="M0.201172 26.1754C0.201172 26.9474 0.837214 27.5789 1.6146 27.5789C24.1022 27.5789 24.7665 49.6702 24.7807 50.6105C24.7807 51.3825 25.4167 51.986 26.1941 51.986C26.9715 51.986 27.5934 51.3684 27.6075 50.6105C27.6217 49.6702 28.286 27.5789 50.7736 27.5789C51.551 27.5789 52.187 26.9474 52.187 26.1754V25.8105C52.187 25.0386 51.551 24.407 50.7736 24.407C28.286 24.407 27.6358 2.31579 27.6075 1.37544C27.6075 0.603509 26.9574 0 26.1941 0C25.4309 0 24.7948 0.617544 24.7807 1.37544C24.7665 2.31579 24.1022 24.407 1.6146 24.407C0.837214 24.407 0.201172 25.0386 0.201172 25.8105V26.1754ZM26.1941 9.23509C28.0316 15.2561 32.2718 23.0316 41.9821 25.993C32.2718 28.9544 28.0316 36.7298 26.1941 42.7509C24.3566 36.7298 20.1164 28.9544 10.4061 25.993C20.1164 23.0316 24.3566 15.2561 26.1941 9.23509Z" fill="white"/>
</g>
<defs>
<clipPath id="clip0_360_1984">
<rect width="52" height="52" fill="white" transform="translate(0.201172)"/>
</clipPath>
</defs>
</svg>
