<svg width="28" height="32" viewBox="0 0 28 32" fill="none" xmlns="http://www.w3.org/2000/svg">
<path d="M15.8772 0.000134495C16.359 0.000134453 16.8124 0.0942323 17.2375 0.282428C17.6626 0.470623 18.031 0.723962 18.3427 1.04245L27.0996 9.98897L24.7191 12.5079C24.3224 12.9132 23.876 13.2245 23.3801 13.4416C22.8841 13.6588 22.3669 13.695 21.8285 13.5502L18.5128 12.7685L18.5128 26.9266C18.5128 28.1426 18.1019 29.1704 17.28 30.0101C16.4582 30.8497 15.4521 31.2695 14.2619 31.2695C13.0716 31.2695 12.0656 30.8497 11.2437 30.0101C10.4219 29.1704 10.011 28.1426 10.011 26.9266L10.011 19.4566L8.90575 19.4566C8.76405 19.4566 8.63653 19.4277 8.52317 19.3698C8.40981 19.3119 8.28229 19.254 8.14059 19.1961L1.84925 16.0691C1.16911 15.7506 0.666084 15.2367 0.340182 14.5274C0.0142793 13.818 -0.0778212 13.087 0.0638755 12.3342L1.5942 2.8665C1.7359 2.02685 2.13264 1.33922 2.78445 0.803583C3.43625 0.26795 4.17308 0.000135519 4.99492 0.000135447L15.8772 0.000134495ZM16.2173 2.60592L4.27226 2.60592L2.44438 13.4199L10.2235 17.372L12.5615 17.372L12.5615 26.9266C12.5615 27.4477 12.7174 27.8675 13.0291 28.186C13.3409 28.5045 13.7518 28.6637 14.2619 28.6637C14.772 28.6637 15.1829 28.5045 15.4946 28.186C15.8064 27.8675 15.9622 27.4477 15.9622 26.9266L15.9622 9.5981L22.5086 11.0313L23.4863 10.0324L16.2173 2.60592Z" fill="white"/>
</svg>
