<svg width="194" height="192" viewBox="0 0 194 192" fill="none" xmlns="http://www.w3.org/2000/svg">
<path d="M138.609 54.3577C122.225 37.9741 95.5954 37.9741 79.2117 54.3577L64.907 68.6625C61.8876 71.6818 55.9974 74.9982 51.8891 76.0376L36.7429 79.7994C27.3879 82.1258 23.3291 91.0354 27.5859 99.6479C41.7916 128.109 64.808 151.125 93.269 165.331C101.238 169.34 110.94 164.886 113.118 156.174L116.879 141.028C117.968 136.969 121.285 131.079 124.304 128.059L138.609 113.755C154.943 97.4205 154.943 70.6919 138.609 54.3577Z" fill="#FFD595" stroke="white" stroke-width="5" stroke-miterlimit="10" stroke-linecap="round"/>
<path d="M69.3684 155.316C61.2013 163.483 50.1138 161.404 41.9468 153.237C37.888 149.178 35.8091 143.733 35.8091 138.387C35.8091 133.042 35.6111 129.676 39.6699 125.617" fill="#FFD595"/>
<path d="M69.3684 155.316C61.2013 163.483 50.1138 161.404 41.9468 153.237C37.888 149.178 35.8091 143.733 35.8091 138.387C35.8091 133.042 35.6111 129.676 39.6699 125.617" stroke="white" stroke-width="5" stroke-miterlimit="10"/>
</svg>
